{"title":"BILL WYMAN (1981) Je Suis Un Rock Star.mpg","uid":5968832,"size":177381380,"categoryP":"video","categoryS":"music_videos","magnet":"?xt=urn:btih:3570c33d6cc96d8ce2f238b8d9296d12d6542f38&amp;dn=BILL+WYMAN+%281981%29+Je+Suis+Un+Rock+Star.mpg&amp;tr=udp%3A%2F%2Ftracker.openbittorrent.com%3A80&amp;tr=udp%3A%2F%2Fopen.demonii.com%3A1337&amp;tr=udp%3A%2F%2Ftracker.coppersurfer.tk%3A6969&amp;tr=udp%3A%2F%2Fexodus.desync.com%3A6969","seeders":0,"leechers":1,"uploader":"boonie1974","files":-1,"time":1290203606,"description":"General\nComplete name                    : C:\\Documents and Settings\\Dave\\My Documents\\BILL WYMAN (1981) Je Suis Un Rock Star.mpg\nFormat                           : MPEG-PS\nFile size                        : 169 MiB\nDuration                         : 3mn 19s\nOverall bit rate                 : 7 105 Kbps\n\nVideo\nID                               : 224 (0xE0)\nFormat                           : MPEG Video\nFormat version                   : Version 2\nFormat profile                   : Main@Main\nFormat settings, BVOP            : Yes\nFormat settings, Matrix          : Default\nDuration                         : 3mn 19s\nBit rate mode                    : Variable\nBit rate                         : 6 772 Kbps\nNominal bit rate                 : 9 600 Kbps\nWidth                            : 720 pixels\nHeight                           : 576 pixels\nDisplay aspect ratio             : 4:3\nFrame rate                       : 25.000 fps\nStandard                         : PAL\nColor space                      : YUV\nChroma subsampling               : 4:2:0\nBit depth                        : 8 bits\nScan type                        : Interlaced\nScan order                       : Top Field First\nBits/(Pixel*Frame)               : 0.653\nStream size                      : 161 MiB (95%)\n\nAudio\nID                               : 128 (0x80)\nFormat                           : AC-3\nFormat/Info                      : Audio Coding 3\nMode extension                   : CM (complete main)\nDuration                         : 3mn 19s\nBit rate mode                    : Constant\nBit rate                         : 192 Kbps\nChannel(s)                       : 2 channels\nChannel positions                : Front: L R\nSampling rate                    : 48.0 KHz\nBit depth                        : 16 bits\nStream size                      : 4.57 MiB (3%)","torrent":{"xt":"urn:btih:3570c33d6cc96d8ce2f238b8d9296d12d6542f38","amp;dn":"BILL+WYMAN+%281981%29+Je+Suis+Un+Rock+Star.mpg","amp;tr":["udp%3A%2F%2Ftracker.openbittorrent.com%3A80","udp%3A%2F%2Fopen.demonii.com%3A1337","udp%3A%2F%2Ftracker.coppersurfer.tk%3A6969","udp%3A%2F%2Fexodus.desync.com%3A6969"],"infoHash":"3570c33d6cc96d8ce2f238b8d9296d12d6542f38","infoHashBuffer":{"type":"Buffer","data":[53,112,195,61,108,201,109,140,226,242,56,184,217,41,109,18,214,84,47,56]},"announce":[],"urlList":[]}}